<svg width="80" height="80" viewBox="0 0 80 80" fill="none" xmlns="http://www.w3.org/2000/svg">
<path d="M78.25 40C78.25 61.1296 61.1234 78.25 40 78.25C18.8766 78.25 1.75 61.1296 1.75 40C1.75 18.8828 18.8767 1.75 40 1.75C61.1233 1.75 78.25 18.8828 78.25 40ZM40 47.3125C35.7543 47.3125 32.3125 50.7543 32.3125 55C32.3125 59.2457 35.7543 62.6875 40 62.6875C44.2457 62.6875 47.6875 59.2457 47.6875 55C47.6875 50.7543 44.2457 47.3125 40 47.3125ZM32.6768 22.0044L33.8359 43.2544C33.9046 44.514 34.946 45.5 36.2073 45.5H43.7927C45.054 45.5 46.0954 44.514 46.1641 43.2544L47.3232 22.0044C47.3974 20.644 46.3142 19.5 44.9517 19.5H35.0481C33.6856 19.5 32.6026 20.644 32.6768 22.0044Z" fill="white" stroke="#FF0000"/>
</svg>
